<svg width="45" height="44" viewBox="0 0 45 44" fill="none" xmlns="http://www.w3.org/2000/svg">
<path d="M44.3203 22.0127C44.3203 10.0027 34.5803 0.262695 22.5703 0.262695C10.5603 0.262695 0.820312 10.0027 0.820312 22.0127C0.820312 34.0227 10.5603 43.7627 22.5703 43.7627C34.5803 43.7627 44.3203 34.0227 44.3203 22.0127Z" fill="url(#paint0_linear_667_9333)"/>
<path d="M15.3706 23.7523L17.8806 30.5423L28.9806 15.1123L15.3706 23.7523Z" fill="#C2DAEC"/>
<path d="M18.1506 25.2622L17.9106 30.6122L23.7706 25.6422L18.1506 25.2622Z" fill="#9FCDE2"/>
<path d="M31.7006 12.5121L9.81059 20.8321C9.19059 21.0621 9.21059 21.9521 9.83059 22.1621L15.4706 24.0721L28.3206 15.7821L18.1406 25.2721L26.0706 31.2821C26.8906 31.9121 28.0906 31.4821 28.3406 30.4821L32.6206 13.3421C32.7606 12.7921 32.2206 12.3121 31.6906 12.5121H31.7006Z" fill="#ECF8FD"/>
<defs>
<linearGradient id="paint0_linear_667_9333" x1="0.830312" y1="22.0127" x2="44.3203" y2="22.0127" gradientUnits="userSpaceOnUse">
<stop stop-color="#00AFE5"/>
<stop offset="1" stop-color="#0094D4"/>
</linearGradient>
</defs>
</svg>
