<svg width="45" height="44" viewBox="0 0 45 44" fill="none" xmlns="http://www.w3.org/2000/svg">
<path d="M44.4102 22.0127C44.4102 10.0027 34.6702 0.262695 22.6602 0.262695C10.6502 0.262695 0.910156 10.0027 0.910156 22.0127C0.910156 34.0227 10.6502 43.7627 22.6602 43.7627C34.6702 43.7627 44.4102 34.0227 44.4102 22.0127Z" fill="#1B304C"/>
<path d="M32.1198 29.8934L25.1298 19.7434L24.3398 18.5934L19.3398 11.3334L18.9298 10.7334H12.7898L14.2898 12.9134L20.9398 22.5734L21.7298 23.7234L27.0698 31.4834L27.4798 32.0834H33.6198L32.1198 29.9034V29.8934ZM28.2098 30.6834L22.6598 22.6234L21.8698 21.4734L15.4298 12.1234H18.1998L23.4098 19.6934L24.1998 20.8434L30.9798 30.6934H28.2098V30.6834Z" fill="white"/>
<path d="M21.8698 21.4639L22.6598 22.6139L21.7198 23.7039L14.5398 32.0639H12.7598L20.9298 22.5539L21.8698 21.4639Z" fill="white"/>
<path d="M32.8797 10.7236L25.1397 19.7336L24.1997 20.8236L23.4097 19.6736L24.3397 18.5836L29.5897 12.4836L31.1097 10.7236H32.8797Z" fill="white"/>
</svg>
