<svg width="45" height="44" viewBox="0 0 45 44" fill="none" xmlns="http://www.w3.org/2000/svg">
<path d="M44.23 22.0127C44.23 10.0027 34.49 0.262695 22.48 0.262695C10.47 0.262695 0.72998 10.0027 0.72998 22.0127C0.72998 34.0227 10.47 43.7627 22.48 43.7627C34.49 43.7627 44.23 34.0227 44.23 22.0127Z" fill="#D40C18"/>
<path d="M28.04 13.9829H16.93C13.9532 13.9829 11.54 16.3961 11.54 19.3729V24.6429C11.54 27.6197 13.9532 30.0329 16.93 30.0329H28.04C31.0169 30.0329 33.43 27.6197 33.43 24.6429V19.3729C33.43 16.3961 31.0169 13.9829 28.04 13.9829Z" fill="white"/>
<path d="M26.9301 22.0629L19.6201 26.0129C19.3801 26.1429 19.0801 25.9729 19.0801 25.6929V17.7629C19.0801 17.4829 19.3701 17.3129 19.6201 17.4429L26.9301 21.4229C27.1901 21.5629 27.1801 21.9329 26.9301 22.0629Z" fill="#DB0C0B"/>
</svg>
